<svg id="visual" viewBox="0 0 1920 1080" width="1920" height="1080" xmlns="http://www.w3.org/2000/svg" xmlns:xlink="http://www.w3.org/1999/xlink" version="1.1"><rect x="0" y="0" width="1920" height="1080" fill="#EAF6FF"></rect><path d="M0 615L40 629.3C80 643.7 160 672.3 240 677.2C320 682 400 663 480 672C560 681 640 718 720 706.8C800 695.7 880 636.3 960 604.2C1040 572 1120 567 1200 585C1280 603 1360 644 1440 682C1520 720 1600 755 1680 774.7C1760 794.3 1840 798.7 1880 800.8L1920 803L1920 1081L1880 1081C1840 1081 1760 1081 1680 1081C1600 1081 1520 1081 1440 1081C1360 1081 1280 1081 1200 1081C1120 1081 1040 1081 960 1081C880 1081 800 1081 720 1081C640 1081 560 1081 480 1081C400 1081 320 1081 240 1081C160 1081 80 1081 40 1081L0 1081Z" fill="#2a2a72"></path><path d="M0 741L40 723.7C80 706.3 160 671.7 240 664.2C320 656.7 400 676.3 480 710.3C560 744.3 640 792.7 720 809.3C800 826 880 811 960 786.7C1040 762.3 1120 728.7 1200 710.2C1280 691.7 1360 688.3 1440 706.3C1520 724.3 1600 763.7 1680 791C1760 818.3 1840 833.7 1880 841.3L1920 849L1920 1081L1880 1081C1840 1081 1760 1081 1680 1081C1600 1081 1520 1081 1440 1081C1360 1081 1280 1081 1200 1081C1120 1081 1040 1081 960 1081C880 1081 800 1081 720 1081C640 1081 560 1081 480 1081C400 1081 320 1081 240 1081C160 1081 80 1081 40 1081L0 1081Z" fill="#2e408e"></path><path d="M0 819L40 828.5C80 838 160 857 240 870.5C320 884 400 892 480 864.7C560 837.3 640 774.7 720 750.5C800 726.3 880 740.7 960 748.5C1040 756.3 1120 757.7 1200 777.8C1280 798 1360 837 1440 840.2C1520 843.3 1600 810.7 1680 790C1760 769.3 1840 760.7 1880 756.3L1920 752L1920 1081L1880 1081C1840 1081 1760 1081 1680 1081C1600 1081 1520 1081 1440 1081C1360 1081 1280 1081 1200 1081C1120 1081 1040 1081 960 1081C880 1081 800 1081 720 1081C640 1081 560 1081 480 1081C400 1081 320 1081 240 1081C160 1081 80 1081 40 1081L0 1081Z" fill="#2e56aa"></path><path d="M0 915L40 909.7C80 904.3 160 893.7 240 889C320 884.3 400 885.7 480 893.7C560 901.7 640 916.3 720 902.3C800 888.3 880 845.7 960 845.5C1040 845.3 1120 887.7 1200 904.8C1280 922 1360 914 1440 897.3C1520 880.7 1600 855.3 1680 845.5C1760 835.7 1840 841.3 1880 844.2L1920 847L1920 1081L1880 1081C1840 1081 1760 1081 1680 1081C1600 1081 1520 1081 1440 1081C1360 1081 1280 1081 1200 1081C1120 1081 1040 1081 960 1081C880 1081 800 1081 720 1081C640 1081 560 1081 480 1081C400 1081 320 1081 240 1081C160 1081 80 1081 40 1081L0 1081Z" fill="#2b6ec6"></path><path d="M0 977L40 967.8C80 958.7 160 940.3 240 939.3C320 938.3 400 954.7 480 945.8C560 937 640 903 720 893.5C800 884 880 899 960 902.5C1040 906 1120 898 1200 910.5C1280 923 1360 956 1440 971C1520 986 1600 983 1680 965.2C1760 947.3 1840 914.7 1880 898.3L1920 882L1920 1081L1880 1081C1840 1081 1760 1081 1680 1081C1600 1081 1520 1081 1440 1081C1360 1081 1280 1081 1200 1081C1120 1081 1040 1081 960 1081C880 1081 800 1081 720 1081C640 1081 560 1081 480 1081C400 1081 320 1081 240 1081C160 1081 80 1081 40 1081L0 1081Z" fill="#2086e2"></path><path d="M0 1027L40 1027C80 1027 160 1027 240 1013.2C320 999.3 400 971.7 480 967.3C560 963 640 982 720 993C800 1004 880 1007 960 1010.8C1040 1014.7 1120 1019.3 1200 1013.7C1280 1008 1360 992 1440 986C1520 980 1600 984 1680 980.2C1760 976.3 1840 964.7 1880 958.8L1920 953L1920 1081L1880 1081C1840 1081 1760 1081 1680 1081C1600 1081 1520 1081 1440 1081C1360 1081 1280 1081 1200 1081C1120 1081 1040 1081 960 1081C880 1081 800 1081 720 1081C640 1081 560 1081 480 1081C400 1081 320 1081 240 1081C160 1081 80 1081 40 1081L0 1081Z" fill="#009ffd"></path></svg>